<mxfile host="app.diagrams.net" modified="2021-06-06T06:26:18.398Z" agent="5.0 (Macintosh; Intel Mac OS X 10_15_7) AppleWebKit/537.36 (KHTML, like Gecko) Chrome/91.0.4472.77 Safari/537.36" etag="EXE9PkMsEjL82zV56QuA" version="14.7.6" type="github">
  <diagram id="Pprt8LGOS9IJt7sl26f4" name="Page-1">
    <mxGraphModel dx="1264" dy="1039" grid="1" gridSize="10" guides="1" tooltips="1" connect="1" arrows="1" fold="1" page="1" pageScale="1" pageWidth="827" pageHeight="1169" math="0" shadow="0">
      <root>
        <mxCell id="0" />
        <mxCell id="1" parent="0" />
        <mxCell id="x4rKKD38Qmm2nVy2NwAd-1" value="User" style="swimlane;childLayout=stackLayout;horizontal=1;startSize=30;horizontalStack=0;rounded=1;fontSize=14;fontStyle=0;strokeWidth=2;resizeParent=0;resizeLast=1;shadow=0;dashed=0;align=center;" vertex="1" parent="1">
          <mxGeometry x="100" y="230" width="160" height="120" as="geometry" />
        </mxCell>
        <mxCell id="x4rKKD38Qmm2nVy2NwAd-2" value="+id&#xa;+name&#xa;+birth_date&#xa;+phone_number&#xa;+email" style="align=left;strokeColor=none;fillColor=none;spacingLeft=4;fontSize=12;verticalAlign=top;resizable=0;rotatable=0;part=1;" vertex="1" parent="x4rKKD38Qmm2nVy2NwAd-1">
          <mxGeometry y="30" width="160" height="90" as="geometry" />
        </mxCell>
        <mxCell id="x4rKKD38Qmm2nVy2NwAd-3" value="memo" style="swimlane;childLayout=stackLayout;horizontal=1;startSize=30;horizontalStack=0;rounded=1;fontSize=14;fontStyle=0;strokeWidth=2;resizeParent=0;resizeLast=1;shadow=0;dashed=0;align=center;" vertex="1" parent="1">
          <mxGeometry x="460" y="220" width="160" height="200" as="geometry">
            <mxRectangle x="400" y="200" width="70" height="30" as="alternateBounds" />
          </mxGeometry>
        </mxCell>
        <mxCell id="x4rKKD38Qmm2nVy2NwAd-33" value="contents" style="text;html=1;strokeColor=none;fillColor=none;align=center;verticalAlign=middle;whiteSpace=wrap;rounded=0;fontColor=#FF3333;" vertex="1" parent="x4rKKD38Qmm2nVy2NwAd-3">
          <mxGeometry y="30" width="160" as="geometry" />
        </mxCell>
        <mxCell id="x4rKKD38Qmm2nVy2NwAd-4" value="+id&#xa;+template&#xa;+background_color&#xa;+lock&#xa;+delete&#xa;+alarm" style="align=left;strokeColor=none;fillColor=none;spacingLeft=4;fontSize=12;verticalAlign=top;resizable=0;rotatable=0;part=1;" vertex="1" parent="x4rKKD38Qmm2nVy2NwAd-3">
          <mxGeometry y="30" width="160" height="170" as="geometry" />
        </mxCell>
        <mxCell id="x4rKKD38Qmm2nVy2NwAd-25" style="edgeStyle=orthogonalEdgeStyle;rounded=0;orthogonalLoop=1;jettySize=auto;html=1;exitX=0;exitY=0.5;exitDx=0;exitDy=0;entryX=0.25;entryY=1;entryDx=0;entryDy=0;startArrow=ERzeroToMany;startFill=1;endArrow=ERone;endFill=0;" edge="1" parent="1" source="x4rKKD38Qmm2nVy2NwAd-6" target="x4rKKD38Qmm2nVy2NwAd-2">
          <mxGeometry relative="1" as="geometry" />
        </mxCell>
        <mxCell id="x4rKKD38Qmm2nVy2NwAd-6" value="Coworker" style="swimlane;childLayout=stackLayout;horizontal=1;startSize=30;horizontalStack=0;rounded=1;fontSize=14;fontStyle=0;strokeWidth=2;resizeParent=0;resizeLast=1;shadow=0;dashed=0;align=center;" vertex="1" parent="1">
          <mxGeometry x="210" y="440" width="160" height="120" as="geometry" />
        </mxCell>
        <mxCell id="x4rKKD38Qmm2nVy2NwAd-7" value="+memo_id&#xa;+user_id&#xa;+right_id&#xa;+delete" style="align=left;strokeColor=none;fillColor=none;spacingLeft=4;fontSize=12;verticalAlign=top;resizable=0;rotatable=0;part=1;" vertex="1" parent="x4rKKD38Qmm2nVy2NwAd-6">
          <mxGeometry y="30" width="160" height="90" as="geometry" />
        </mxCell>
        <mxCell id="x4rKKD38Qmm2nVy2NwAd-15" value="Right" style="swimlane;childLayout=stackLayout;horizontal=1;startSize=30;horizontalStack=0;rounded=1;fontSize=14;fontStyle=0;strokeWidth=2;resizeParent=0;resizeLast=1;shadow=0;dashed=0;align=center;" vertex="1" parent="1">
          <mxGeometry x="90" y="630" width="160" height="120" as="geometry" />
        </mxCell>
        <mxCell id="x4rKKD38Qmm2nVy2NwAd-16" value="+id&#xa;+name&#xa;+description" style="align=left;strokeColor=none;fillColor=none;spacingLeft=4;fontSize=12;verticalAlign=top;resizable=0;rotatable=0;part=1;" vertex="1" parent="x4rKKD38Qmm2nVy2NwAd-15">
          <mxGeometry y="30" width="160" height="90" as="geometry" />
        </mxCell>
        <mxCell id="x4rKKD38Qmm2nVy2NwAd-17" value="comment" style="swimlane;childLayout=stackLayout;horizontal=1;startSize=30;horizontalStack=0;rounded=1;fontSize=14;fontStyle=0;strokeWidth=2;resizeParent=0;resizeLast=1;shadow=0;dashed=0;align=center;" vertex="1" parent="1">
          <mxGeometry x="460" y="50" width="160" height="120" as="geometry" />
        </mxCell>
        <mxCell id="x4rKKD38Qmm2nVy2NwAd-18" value="+id&#xa;+memo_id&#xa;+delete" style="align=left;strokeColor=none;fillColor=none;spacingLeft=4;fontSize=12;verticalAlign=top;resizable=0;rotatable=0;part=1;" vertex="1" parent="x4rKKD38Qmm2nVy2NwAd-17">
          <mxGeometry y="30" width="160" height="90" as="geometry" />
        </mxCell>
        <mxCell id="x4rKKD38Qmm2nVy2NwAd-19" value="Lock_momo" style="swimlane;childLayout=stackLayout;horizontal=1;startSize=30;horizontalStack=0;rounded=1;fontSize=14;fontStyle=0;strokeWidth=2;resizeParent=0;resizeLast=1;shadow=0;dashed=0;align=center;" vertex="1" parent="1">
          <mxGeometry x="760" y="300" width="160" height="120" as="geometry" />
        </mxCell>
        <mxCell id="x4rKKD38Qmm2nVy2NwAd-20" value="+memo_id&#xa;+password" style="align=left;strokeColor=none;fillColor=none;spacingLeft=4;fontSize=12;verticalAlign=top;resizable=0;rotatable=0;part=1;" vertex="1" parent="x4rKKD38Qmm2nVy2NwAd-19">
          <mxGeometry y="30" width="160" height="90" as="geometry" />
        </mxCell>
        <mxCell id="x4rKKD38Qmm2nVy2NwAd-21" value="Alarm" style="swimlane;childLayout=stackLayout;horizontal=1;startSize=30;horizontalStack=0;rounded=1;fontSize=14;fontStyle=0;strokeWidth=2;resizeParent=0;resizeLast=1;shadow=0;dashed=0;align=center;" vertex="1" parent="1">
          <mxGeometry x="460" y="590" width="160" height="120" as="geometry" />
        </mxCell>
        <mxCell id="x4rKKD38Qmm2nVy2NwAd-34" value="alarm_id" style="text;html=1;strokeColor=none;fillColor=none;align=center;verticalAlign=middle;whiteSpace=wrap;rounded=0;fontColor=#FF3333;" vertex="1" parent="x4rKKD38Qmm2nVy2NwAd-21">
          <mxGeometry y="30" width="160" height="20" as="geometry" />
        </mxCell>
        <mxCell id="x4rKKD38Qmm2nVy2NwAd-22" value="+memo_id&#xa;+subscriber&#xa;+type&#xa;+schedule&#xa;+delete" style="align=left;strokeColor=none;fillColor=none;spacingLeft=4;fontSize=12;verticalAlign=top;resizable=0;rotatable=0;part=1;" vertex="1" parent="x4rKKD38Qmm2nVy2NwAd-21">
          <mxGeometry y="50" width="160" height="70" as="geometry" />
        </mxCell>
        <mxCell id="x4rKKD38Qmm2nVy2NwAd-26" style="edgeStyle=orthogonalEdgeStyle;rounded=0;orthogonalLoop=1;jettySize=auto;html=1;exitX=0;exitY=0.5;exitDx=0;exitDy=0;entryX=1;entryY=0.333;entryDx=0;entryDy=0;entryPerimeter=0;startArrow=ERoneToMany;startFill=0;endArrow=ERone;endFill=0;" edge="1" parent="1" source="x4rKKD38Qmm2nVy2NwAd-4" target="x4rKKD38Qmm2nVy2NwAd-7">
          <mxGeometry relative="1" as="geometry" />
        </mxCell>
        <mxCell id="x4rKKD38Qmm2nVy2NwAd-27" style="edgeStyle=orthogonalEdgeStyle;rounded=0;orthogonalLoop=1;jettySize=auto;html=1;entryX=1;entryY=0.5;entryDx=0;entryDy=0;startArrow=ERzeroToOne;startFill=1;endArrow=ERone;endFill=0;exitX=0;exitY=0.25;exitDx=0;exitDy=0;" edge="1" parent="1" source="x4rKKD38Qmm2nVy2NwAd-20" target="x4rKKD38Qmm2nVy2NwAd-4">
          <mxGeometry relative="1" as="geometry" />
        </mxCell>
        <mxCell id="x4rKKD38Qmm2nVy2NwAd-28" style="edgeStyle=orthogonalEdgeStyle;rounded=0;orthogonalLoop=1;jettySize=auto;html=1;exitX=0.5;exitY=1;exitDx=0;exitDy=0;entryX=0.5;entryY=0;entryDx=0;entryDy=0;startArrow=ERone;startFill=0;endArrow=ERzeroToMany;endFill=1;" edge="1" parent="1" source="x4rKKD38Qmm2nVy2NwAd-4" target="x4rKKD38Qmm2nVy2NwAd-21">
          <mxGeometry relative="1" as="geometry" />
        </mxCell>
        <mxCell id="x4rKKD38Qmm2nVy2NwAd-29" style="edgeStyle=orthogonalEdgeStyle;rounded=0;orthogonalLoop=1;jettySize=auto;html=1;startArrow=ERzeroToMany;startFill=1;endArrow=ERone;endFill=0;entryX=0;entryY=0.344;entryDx=0;entryDy=0;entryPerimeter=0;dashed=1;" edge="1" parent="1" target="x4rKKD38Qmm2nVy2NwAd-2">
          <mxGeometry relative="1" as="geometry">
            <mxPoint x="450" y="650" as="sourcePoint" />
            <Array as="points">
              <mxPoint x="380" y="650" />
              <mxPoint x="380" y="810" />
              <mxPoint x="40" y="810" />
              <mxPoint x="40" y="291" />
            </Array>
          </mxGeometry>
        </mxCell>
        <mxCell id="x4rKKD38Qmm2nVy2NwAd-30" style="edgeStyle=orthogonalEdgeStyle;rounded=0;orthogonalLoop=1;jettySize=auto;html=1;exitX=0.25;exitY=1;exitDx=0;exitDy=0;entryX=0.5;entryY=0;entryDx=0;entryDy=0;startArrow=ERone;startFill=0;endArrow=ERone;endFill=0;" edge="1" parent="1" source="x4rKKD38Qmm2nVy2NwAd-7" target="x4rKKD38Qmm2nVy2NwAd-15">
          <mxGeometry relative="1" as="geometry" />
        </mxCell>
        <mxCell id="x4rKKD38Qmm2nVy2NwAd-31" style="edgeStyle=orthogonalEdgeStyle;rounded=0;orthogonalLoop=1;jettySize=auto;html=1;exitX=0.5;exitY=1;exitDx=0;exitDy=0;entryX=0.5;entryY=0;entryDx=0;entryDy=0;startArrow=ERzeroToMany;startFill=1;endArrow=ERone;endFill=0;" edge="1" parent="1" source="x4rKKD38Qmm2nVy2NwAd-18" target="x4rKKD38Qmm2nVy2NwAd-3">
          <mxGeometry relative="1" as="geometry" />
        </mxCell>
        <mxCell id="x4rKKD38Qmm2nVy2NwAd-32" value="contents" style="text;html=1;strokeColor=none;fillColor=none;align=center;verticalAlign=middle;whiteSpace=wrap;rounded=0;fontColor=#FF3333;" vertex="1" parent="1">
          <mxGeometry x="470" y="140" width="40" height="20" as="geometry" />
        </mxCell>
      </root>
    </mxGraphModel>
  </diagram>
</mxfile>
